<mxfile host="Electron" modified="2023-07-15T06:08:41.226Z" agent="Mozilla/5.0 (Windows NT 10.0; Win64; x64) AppleWebKit/537.36 (KHTML, like Gecko) draw.io/21.6.1 Chrome/112.0.5615.204 Electron/24.6.1 Safari/537.36" etag="vMfGzH3tRH_akHC2Jgwz" version="21.6.1" type="device">
  <diagram name="第 1 页" id="gHzWxk7oOuLgtcImLSez">
    <mxGraphModel dx="832" dy="484" grid="1" gridSize="10" guides="1" tooltips="1" connect="1" arrows="1" fold="1" page="1" pageScale="1" pageWidth="1169" pageHeight="827" math="0" shadow="0">
      <root>
        <mxCell id="0" />
        <mxCell id="1" parent="0" />
        <mxCell id="04hNzwXS1I06AfuoQ-L1-3" value="" style="edgeStyle=orthogonalEdgeStyle;rounded=0;orthogonalLoop=1;jettySize=auto;html=1;dashed=1;" edge="1" parent="1" source="04hNzwXS1I06AfuoQ-L1-1" target="04hNzwXS1I06AfuoQ-L1-2">
          <mxGeometry relative="1" as="geometry" />
        </mxCell>
        <mxCell id="04hNzwXS1I06AfuoQ-L1-1" value="Dev" style="shape=umlActor;verticalLabelPosition=bottom;verticalAlign=top;html=1;outlineConnect=0;" vertex="1" parent="1">
          <mxGeometry x="240" y="105" width="30" height="60" as="geometry" />
        </mxCell>
        <mxCell id="04hNzwXS1I06AfuoQ-L1-2" value="HELM" style="rounded=1;whiteSpace=wrap;html=1;fontSize=16;" vertex="1" parent="1">
          <mxGeometry x="340" y="115" width="80" height="40" as="geometry" />
        </mxCell>
        <mxCell id="04hNzwXS1I06AfuoQ-L1-28" value="" style="group" vertex="1" connectable="0" parent="1">
          <mxGeometry x="500" width="180" height="250" as="geometry" />
        </mxCell>
        <mxCell id="04hNzwXS1I06AfuoQ-L1-27" value="" style="rounded=1;whiteSpace=wrap;html=1;" vertex="1" parent="04hNzwXS1I06AfuoQ-L1-28">
          <mxGeometry width="180" height="250" as="geometry" />
        </mxCell>
        <mxCell id="04hNzwXS1I06AfuoQ-L1-4" value="" style="rounded=0;whiteSpace=wrap;html=1;" vertex="1" parent="04hNzwXS1I06AfuoQ-L1-28">
          <mxGeometry x="20" y="40" width="140" height="190" as="geometry" />
        </mxCell>
        <mxCell id="04hNzwXS1I06AfuoQ-L1-12" value="" style="group" vertex="1" connectable="0" parent="04hNzwXS1I06AfuoQ-L1-28">
          <mxGeometry x="30" y="50" width="40" height="50" as="geometry" />
        </mxCell>
        <mxCell id="04hNzwXS1I06AfuoQ-L1-9" value="" style="shape=note;whiteSpace=wrap;html=1;backgroundOutline=1;darkOpacity=0.05;size=7;" vertex="1" parent="04hNzwXS1I06AfuoQ-L1-12">
          <mxGeometry width="20" height="30" as="geometry" />
        </mxCell>
        <mxCell id="04hNzwXS1I06AfuoQ-L1-10" value="" style="shape=note;whiteSpace=wrap;html=1;backgroundOutline=1;darkOpacity=0.05;size=7;" vertex="1" parent="04hNzwXS1I06AfuoQ-L1-12">
          <mxGeometry x="10" y="10" width="20" height="30" as="geometry" />
        </mxCell>
        <mxCell id="04hNzwXS1I06AfuoQ-L1-11" value="" style="shape=note;whiteSpace=wrap;html=1;backgroundOutline=1;darkOpacity=0.05;size=7;" vertex="1" parent="04hNzwXS1I06AfuoQ-L1-12">
          <mxGeometry x="20" y="20" width="20" height="30" as="geometry" />
        </mxCell>
        <mxCell id="04hNzwXS1I06AfuoQ-L1-15" value="" style="group" vertex="1" connectable="0" parent="04hNzwXS1I06AfuoQ-L1-28">
          <mxGeometry x="30" y="110" width="40" height="50" as="geometry" />
        </mxCell>
        <mxCell id="04hNzwXS1I06AfuoQ-L1-16" value="" style="shape=note;whiteSpace=wrap;html=1;backgroundOutline=1;darkOpacity=0.05;size=7;" vertex="1" parent="04hNzwXS1I06AfuoQ-L1-15">
          <mxGeometry width="20" height="30" as="geometry" />
        </mxCell>
        <mxCell id="04hNzwXS1I06AfuoQ-L1-17" value="" style="shape=note;whiteSpace=wrap;html=1;backgroundOutline=1;darkOpacity=0.05;size=7;" vertex="1" parent="04hNzwXS1I06AfuoQ-L1-15">
          <mxGeometry x="10" y="10" width="20" height="30" as="geometry" />
        </mxCell>
        <mxCell id="04hNzwXS1I06AfuoQ-L1-18" value="" style="shape=note;whiteSpace=wrap;html=1;backgroundOutline=1;darkOpacity=0.05;size=7;" vertex="1" parent="04hNzwXS1I06AfuoQ-L1-15">
          <mxGeometry x="20" y="20" width="20" height="30" as="geometry" />
        </mxCell>
        <mxCell id="04hNzwXS1I06AfuoQ-L1-19" value="" style="group" vertex="1" connectable="0" parent="04hNzwXS1I06AfuoQ-L1-28">
          <mxGeometry x="30" y="170" width="40" height="50" as="geometry" />
        </mxCell>
        <mxCell id="04hNzwXS1I06AfuoQ-L1-20" value="" style="shape=note;whiteSpace=wrap;html=1;backgroundOutline=1;darkOpacity=0.05;size=7;" vertex="1" parent="04hNzwXS1I06AfuoQ-L1-19">
          <mxGeometry width="20" height="30" as="geometry" />
        </mxCell>
        <mxCell id="04hNzwXS1I06AfuoQ-L1-21" value="" style="shape=note;whiteSpace=wrap;html=1;backgroundOutline=1;darkOpacity=0.05;size=7;" vertex="1" parent="04hNzwXS1I06AfuoQ-L1-19">
          <mxGeometry x="10" y="10" width="20" height="30" as="geometry" />
        </mxCell>
        <mxCell id="04hNzwXS1I06AfuoQ-L1-22" value="" style="shape=note;whiteSpace=wrap;html=1;backgroundOutline=1;darkOpacity=0.05;size=7;" vertex="1" parent="04hNzwXS1I06AfuoQ-L1-19">
          <mxGeometry x="20" y="20" width="20" height="30" as="geometry" />
        </mxCell>
        <mxCell id="04hNzwXS1I06AfuoQ-L1-23" value="Chart" style="text;html=1;strokeColor=none;fillColor=none;align=center;verticalAlign=middle;whiteSpace=wrap;rounded=0;fontSize=18;" vertex="1" parent="04hNzwXS1I06AfuoQ-L1-28">
          <mxGeometry x="85" y="60" width="60" height="30" as="geometry" />
        </mxCell>
        <mxCell id="04hNzwXS1I06AfuoQ-L1-24" value="Chart" style="text;html=1;strokeColor=none;fillColor=none;align=center;verticalAlign=middle;whiteSpace=wrap;rounded=0;fontSize=18;" vertex="1" parent="04hNzwXS1I06AfuoQ-L1-28">
          <mxGeometry x="85" y="120" width="60" height="30" as="geometry" />
        </mxCell>
        <mxCell id="04hNzwXS1I06AfuoQ-L1-25" value="Chart" style="text;html=1;strokeColor=none;fillColor=none;align=center;verticalAlign=middle;whiteSpace=wrap;rounded=0;fontSize=18;" vertex="1" parent="04hNzwXS1I06AfuoQ-L1-28">
          <mxGeometry x="85" y="180" width="60" height="30" as="geometry" />
        </mxCell>
        <mxCell id="04hNzwXS1I06AfuoQ-L1-26" value="Chart 仓库" style="text;html=1;strokeColor=none;fillColor=none;align=center;verticalAlign=middle;whiteSpace=wrap;rounded=0;fontSize=20;" vertex="1" parent="04hNzwXS1I06AfuoQ-L1-28">
          <mxGeometry x="20" width="140" height="40" as="geometry" />
        </mxCell>
        <mxCell id="04hNzwXS1I06AfuoQ-L1-29" value="" style="edgeStyle=orthogonalEdgeStyle;rounded=0;orthogonalLoop=1;jettySize=auto;html=1;entryX=0;entryY=0.5;entryDx=0;entryDy=0;dashed=1;" edge="1" parent="1" source="04hNzwXS1I06AfuoQ-L1-2" target="04hNzwXS1I06AfuoQ-L1-4">
          <mxGeometry relative="1" as="geometry" />
        </mxCell>
        <mxCell id="04hNzwXS1I06AfuoQ-L1-30" value="开发人员&lt;br style=&quot;font-size: 14px;&quot;&gt;开发Chart" style="text;html=1;strokeColor=none;fillColor=none;align=center;verticalAlign=middle;whiteSpace=wrap;rounded=0;fontSize=14;" vertex="1" parent="1">
          <mxGeometry x="335" y="75" width="90" height="40" as="geometry" />
        </mxCell>
        <mxCell id="04hNzwXS1I06AfuoQ-L1-35" value="" style="group" vertex="1" connectable="0" parent="1">
          <mxGeometry x="860" y="100" width="60" height="104" as="geometry" />
        </mxCell>
        <mxCell id="04hNzwXS1I06AfuoQ-L1-31" value="" style="shape=umlActor;verticalLabelPosition=bottom;verticalAlign=top;html=1;outlineConnect=0;" vertex="1" parent="04hNzwXS1I06AfuoQ-L1-35">
          <mxGeometry width="30" height="60" as="geometry" />
        </mxCell>
        <mxCell id="04hNzwXS1I06AfuoQ-L1-32" value="" style="shape=umlActor;verticalLabelPosition=bottom;verticalAlign=top;html=1;outlineConnect=0;" vertex="1" parent="04hNzwXS1I06AfuoQ-L1-35">
          <mxGeometry x="10" y="10" width="30" height="60" as="geometry" />
        </mxCell>
        <mxCell id="04hNzwXS1I06AfuoQ-L1-33" value="" style="shape=umlActor;verticalLabelPosition=bottom;verticalAlign=top;html=1;outlineConnect=0;" vertex="1" parent="04hNzwXS1I06AfuoQ-L1-35">
          <mxGeometry x="20" y="20" width="30" height="60" as="geometry" />
        </mxCell>
        <mxCell id="04hNzwXS1I06AfuoQ-L1-34" value="Users" style="text;html=1;align=center;verticalAlign=middle;resizable=0;points=[];autosize=1;strokeColor=none;fillColor=none;" vertex="1" parent="04hNzwXS1I06AfuoQ-L1-35">
          <mxGeometry x="10" y="74" width="50" height="30" as="geometry" />
        </mxCell>
        <mxCell id="04hNzwXS1I06AfuoQ-L1-36" value="" style="endArrow=classic;html=1;rounded=0;exitX=1;exitY=0.5;exitDx=0;exitDy=0;" edge="1" parent="1" source="04hNzwXS1I06AfuoQ-L1-4">
          <mxGeometry width="50" height="50" relative="1" as="geometry">
            <mxPoint x="720" y="150" as="sourcePoint" />
            <mxPoint x="870" y="135" as="targetPoint" />
          </mxGeometry>
        </mxCell>
        <mxCell id="04hNzwXS1I06AfuoQ-L1-37" value="其他用户下载&lt;br style=&quot;font-size: 16px;&quot;&gt;Chart" style="ellipse;shape=cloud;whiteSpace=wrap;html=1;fontSize=16;" vertex="1" parent="1">
          <mxGeometry x="700" y="83" width="150" height="104" as="geometry" />
        </mxCell>
        <mxCell id="04hNzwXS1I06AfuoQ-L1-40" value="" style="edgeStyle=orthogonalEdgeStyle;rounded=0;orthogonalLoop=1;jettySize=auto;html=1;dashed=1;" edge="1" parent="1" source="04hNzwXS1I06AfuoQ-L1-38" target="04hNzwXS1I06AfuoQ-L1-39">
          <mxGeometry relative="1" as="geometry" />
        </mxCell>
        <mxCell id="04hNzwXS1I06AfuoQ-L1-38" value="Opt" style="shape=umlActor;verticalLabelPosition=bottom;verticalAlign=top;html=1;outlineConnect=0;" vertex="1" parent="1">
          <mxGeometry x="240" y="400" width="30" height="60" as="geometry" />
        </mxCell>
        <mxCell id="04hNzwXS1I06AfuoQ-L1-39" value="HELM" style="rounded=1;whiteSpace=wrap;html=1;fontSize=16;" vertex="1" parent="1">
          <mxGeometry x="340" y="410" width="80" height="40" as="geometry" />
        </mxCell>
        <mxCell id="04hNzwXS1I06AfuoQ-L1-41" value="运维人员&lt;br&gt;部署应用" style="text;html=1;strokeColor=none;fillColor=none;align=center;verticalAlign=middle;whiteSpace=wrap;rounded=0;fontSize=14;" vertex="1" parent="1">
          <mxGeometry x="335" y="450" width="90" height="40" as="geometry" />
        </mxCell>
        <mxCell id="04hNzwXS1I06AfuoQ-L1-42" value="" style="endArrow=classic;html=1;rounded=0;entryX=0.5;entryY=0;entryDx=0;entryDy=0;exitX=0;exitY=0.75;exitDx=0;exitDy=0;dashed=1;" edge="1" parent="1" source="04hNzwXS1I06AfuoQ-L1-4" target="04hNzwXS1I06AfuoQ-L1-39">
          <mxGeometry width="50" height="50" relative="1" as="geometry">
            <mxPoint x="350" y="310" as="sourcePoint" />
            <mxPoint x="400" y="260" as="targetPoint" />
            <Array as="points">
              <mxPoint x="380" y="183" />
            </Array>
          </mxGeometry>
        </mxCell>
        <mxCell id="04hNzwXS1I06AfuoQ-L1-43" value="下载&lt;br&gt;Chart" style="text;html=1;strokeColor=none;fillColor=none;align=center;verticalAlign=middle;whiteSpace=wrap;rounded=0;fontSize=14;" vertex="1" parent="1">
          <mxGeometry x="360" y="187" width="90" height="40" as="geometry" />
        </mxCell>
        <mxCell id="04hNzwXS1I06AfuoQ-L1-48" value="" style="group" vertex="1" connectable="0" parent="1">
          <mxGeometry x="560" y="375" width="360" height="110" as="geometry" />
        </mxCell>
        <mxCell id="04hNzwXS1I06AfuoQ-L1-47" value="" style="rounded=1;whiteSpace=wrap;html=1;" vertex="1" parent="04hNzwXS1I06AfuoQ-L1-48">
          <mxGeometry width="360" height="110" as="geometry" />
        </mxCell>
        <mxCell id="04hNzwXS1I06AfuoQ-L1-44" value="Release A" style="rounded=0;whiteSpace=wrap;html=1;fontSize=18;dashed=1;" vertex="1" parent="04hNzwXS1I06AfuoQ-L1-48">
          <mxGeometry x="10" y="40" width="160" height="60" as="geometry" />
        </mxCell>
        <mxCell id="04hNzwXS1I06AfuoQ-L1-45" value="Release B" style="rounded=0;whiteSpace=wrap;html=1;fontSize=18;dashed=1;" vertex="1" parent="04hNzwXS1I06AfuoQ-L1-48">
          <mxGeometry x="190" y="40" width="160" height="60" as="geometry" />
        </mxCell>
        <mxCell id="04hNzwXS1I06AfuoQ-L1-46" value="Kubernetes 集群" style="text;html=1;strokeColor=none;fillColor=none;align=center;verticalAlign=middle;whiteSpace=wrap;rounded=0;fontSize=20;" vertex="1" parent="04hNzwXS1I06AfuoQ-L1-48">
          <mxGeometry x="85" width="200" height="40" as="geometry" />
        </mxCell>
        <mxCell id="04hNzwXS1I06AfuoQ-L1-49" value="" style="endArrow=classic;html=1;rounded=0;exitX=1;exitY=0.5;exitDx=0;exitDy=0;entryX=0;entryY=0.5;entryDx=0;entryDy=0;dashed=1;" edge="1" parent="1" source="04hNzwXS1I06AfuoQ-L1-39" target="04hNzwXS1I06AfuoQ-L1-47">
          <mxGeometry width="50" height="50" relative="1" as="geometry">
            <mxPoint x="500" y="580" as="sourcePoint" />
            <mxPoint x="550" y="530" as="targetPoint" />
          </mxGeometry>
        </mxCell>
        <mxCell id="04hNzwXS1I06AfuoQ-L1-50" value="+" style="text;html=1;strokeColor=none;fillColor=none;align=center;verticalAlign=middle;whiteSpace=wrap;rounded=0;fontSize=24;" vertex="1" parent="1">
          <mxGeometry x="460" y="400" width="30" height="30" as="geometry" />
        </mxCell>
        <mxCell id="04hNzwXS1I06AfuoQ-L1-51" value="配置&lt;br&gt;数据" style="text;html=1;strokeColor=none;fillColor=none;align=center;verticalAlign=middle;whiteSpace=wrap;rounded=0;" vertex="1" parent="1">
          <mxGeometry x="480" y="400" width="30" height="30" as="geometry" />
        </mxCell>
      </root>
    </mxGraphModel>
  </diagram>
</mxfile>
